<svg width="25" height="25" viewBox="0 0 25 25" fill="none" xmlns="http://www.w3.org/2000/svg">
<g id="icon">
<g id="Group 33738">
<path id="Vector" d="M9.91667 21.2698C10.1986 21.2698 10.4271 21.0413 10.4271 20.7594C10.4271 20.4775 10.1986 20.249 9.91667 20.249C9.63477 20.249 9.40625 20.4775 9.40625 20.7594C9.40625 21.0413 9.63477 21.2698 9.91667 21.2698Z" fill="#D91118" stroke="#D91118" stroke-width="1.36111" stroke-linecap="round" stroke-linejoin="round"/>
<path id="Vector_2" d="M19.1042 21.2698C19.3861 21.2698 19.6146 21.0413 19.6146 20.7594C19.6146 20.4775 19.3861 20.249 19.1042 20.249C18.8223 20.249 18.5938 20.4775 18.5938 20.7594C18.5938 21.0413 18.8223 21.2698 19.1042 21.2698Z" fill="#D91118" stroke="#D91118" stroke-width="1.36111" stroke-linecap="round" stroke-linejoin="round"/>
<path id="Vector_3" d="M3.28125 3.91565H6.62216L8.86057 15.7618C8.93694 16.1691 9.14614 16.535 9.45153 16.7954C9.75692 17.0558 10.139 17.1941 10.531 17.1862H18.6494C19.0414 17.1941 19.4235 17.0558 19.7289 16.7954C20.0343 16.535 20.2435 16.1691 20.3199 15.7618L21.6562 8.33915H7.45739" stroke="#D91118" stroke-width="1.36111" stroke-linecap="round" stroke-linejoin="round"/>
</g>
</g>
</svg>
