<svg width="17" height="16" viewBox="0 0 17 16" fill="none" xmlns="http://www.w3.org/2000/svg">
<g id="Group 33738">
<path id="Vector" d="M6.39176 15.1576C6.62188 15.1576 6.80843 14.971 6.80843 14.7409C6.80843 14.5108 6.62188 14.3242 6.39176 14.3242C6.16165 14.3242 5.9751 14.5108 5.9751 14.7409C5.9751 14.971 6.16165 15.1576 6.39176 15.1576Z" fill="white" stroke="white" stroke-width="1.66667" stroke-linecap="round" stroke-linejoin="round"/>
<path id="Vector_2" d="M13.8918 15.1576C14.1219 15.1576 14.3084 14.971 14.3084 14.7409C14.3084 14.5108 14.1219 14.3242 13.8918 14.3242C13.6616 14.3242 13.4751 14.5108 13.4751 14.7409C13.4751 14.971 13.6616 15.1576 13.8918 15.1576Z" fill="white" stroke="white" stroke-width="1.66667" stroke-linecap="round" stroke-linejoin="round"/>
<path id="Vector_3" d="M0.975098 0.990234H3.70237L5.52964 10.6606C5.59199 10.9931 5.76276 11.2917 6.01206 11.5043C6.26136 11.7169 6.5733 11.8298 6.89328 11.8233H13.5206C13.8405 11.8298 14.1525 11.7169 14.4018 11.5043C14.6511 11.2917 14.8218 10.9931 14.8842 10.6606L15.9751 4.60126H4.38419" stroke="white" stroke-width="1.66667" stroke-linecap="round" stroke-linejoin="round"/>
</g>
</svg>
