<svg width="53" height="53" viewBox="0 0 53 53" fill="none" xmlns="http://www.w3.org/2000/svg">
<g id="cup">
<g id="vuesax/linear/cup">
<g id="cup_2">
<path id="Vector" d="M26.832 36.4375V41.075" stroke="white" stroke-width="3.3125" stroke-linecap="round" stroke-linejoin="round"/>
<path id="Vector_2" d="M15.791 48.5834H37.8744V46.375C37.8744 43.9459 35.8868 41.9584 33.4577 41.9584H20.2077C17.7785 41.9584 15.791 43.9459 15.791 46.375V48.5834V48.5834Z" stroke="white" stroke-width="3.3125" stroke-miterlimit="10"/>
<path id="Vector_3" d="M13.582 48.5834H40.082" stroke="white" stroke-width="3.3125" stroke-linecap="round" stroke-linejoin="round"/>
<path id="Vector_4" d="M26.4994 35.3333C17.9531 35.3333 11.041 28.4212 11.041 19.875V13.25C11.041 8.36954 14.9939 4.41663 19.8743 4.41663H33.1244C38.0048 4.41663 41.9577 8.36954 41.9577 13.25V19.875C41.9577 28.4212 35.0456 35.3333 26.4994 35.3333Z" stroke="white" stroke-width="3.3125" stroke-linecap="round" stroke-linejoin="round"/>
<path id="Vector_5" d="M12.0785 25.7262C10.4222 25.1962 8.96474 24.2245 7.81641 23.0762C5.82891 20.8678 4.50391 18.2178 4.50391 15.1262C4.50391 12.0345 6.93307 9.60535 10.0247 9.60535H11.4602C11.0185 10.6212 10.7977 11.7474 10.7977 12.9178V19.5428C10.7977 21.7512 11.2614 23.827 12.0785 25.7262Z" stroke="white" stroke-width="3.3125" stroke-linecap="round" stroke-linejoin="round"/>
<path id="Vector_6" d="M40.918 25.7262C42.5742 25.1962 44.0317 24.2245 45.18 23.0762C47.1675 20.8678 48.4925 18.2178 48.4925 15.1262C48.4925 12.0345 46.0634 9.60535 42.9717 9.60535H41.5363C41.978 10.6212 42.1988 11.7474 42.1988 12.9178V19.5428C42.1988 21.7512 41.7351 23.827 40.918 25.7262Z" stroke="white" stroke-width="3.3125" stroke-linecap="round" stroke-linejoin="round"/>
</g>
</g>
</g>
</svg>
