<svg width="72" height="73" viewBox="0 0 72 73" fill="none" xmlns="http://www.w3.org/2000/svg">
<g id="Group 5">
<rect id="Rectangle" y="0.912109" width="72" height="72" rx="6" fill="#131444"/>
<g id="ic_inteliigence">
<path id="Shape" fill-rule="evenodd" clip-rule="evenodd" d="M49.8319 31.8281C49.8319 24.1549 43.5892 17.9121 35.9159 17.9121C28.2426 17.9121 22 24.1549 22 31.8281C22 36.5337 24.4025 40.9318 28.3197 43.4895V47.8736C28.3197 52.0621 31.7273 55.4696 35.9157 55.4696C40.1042 55.4696 43.5118 52.062 43.5118 47.8736V45.4112L43.5117 43.4897C47.4293 40.9319 49.8319 36.5339 49.8319 31.8281ZM40.8297 47.8742C40.8297 50.5834 38.6256 52.7875 35.9163 52.7875C33.207 52.7875 31.0029 50.5833 31.0029 47.8742V46.7529H40.8297V47.8742ZM40.8293 42.7392C40.8293 42.2589 41.086 41.8153 41.5024 41.5761C44.9855 39.5752 47.1493 35.84 47.1495 31.8281C47.1495 25.634 42.1103 20.5948 35.9162 20.5948C29.7221 20.5948 24.6829 25.6341 24.6829 31.8281C24.6829 35.8399 26.8465 39.5751 30.3296 41.5761C30.746 41.8153 31.0027 42.2589 31.0027 42.7392V44.0699H34.5746V37.1338C32.8328 36.5671 31.5701 34.9289 31.5701 33.0007C31.5701 32.26 32.1706 31.6594 32.9114 31.6594C33.6522 31.6594 34.2527 32.26 34.2527 33.0007C34.2527 33.9178 34.9989 34.6639 35.9159 34.6639C36.8329 34.6639 37.579 33.9177 37.579 33.0007C37.579 32.26 38.1796 31.6594 38.9203 31.6594C39.6611 31.6594 40.2617 32.26 40.2617 33.0007C40.2617 34.929 38.9988 36.5671 37.2572 37.1338V44.0699H40.8293V42.7392Z" fill="white"/>
</g>
</g>
</svg>
