<svg width="14" height="14" viewBox="0 0 14 14" fill="none" xmlns="http://www.w3.org/2000/svg">
<g id="icon">
<path id="Vector" d="M10.4149 6.41319C10.4149 9.49647 6.57758 12.1393 6.57758 12.1393C6.57758 12.1393 2.74023 9.49647 2.74023 6.41319C2.74023 5.36181 3.14453 4.3535 3.86417 3.61007C4.58381 2.86663 5.55986 2.44897 6.57758 2.44897C7.59531 2.44897 8.57136 2.86663 9.291 3.61007C10.0106 4.3535 10.4149 5.36181 10.4149 6.41319Z" stroke="#131444" stroke-width="1.0767" stroke-linecap="round" stroke-linejoin="round"/>
<path id="Vector_2" d="M6.57881 7.29427C7.18432 7.29427 7.67519 6.81221 7.67519 6.21757C7.67519 5.62292 7.18432 5.14087 6.57881 5.14087C5.97329 5.14087 5.48242 5.62292 5.48242 6.21757C5.48242 6.81221 5.97329 7.29427 6.57881 7.29427Z" stroke="#131444" stroke-width="1.0767" stroke-linecap="round" stroke-linejoin="round"/>
</g>
</svg>
