<?xml version="1.0" encoding="utf-8"?>
<!-- Generator: Adobe Illustrator 27.2.0, SVG Export Plug-In . SVG Version: 6.00 Build 0)  -->
<svg version="1.1" id="Layer_1" xmlns="http://www.w3.org/2000/svg" xmlns:xlink="http://www.w3.org/1999/xlink" x="0px" y="0px"
	 viewBox="0 0 200 400" style="enable-background:new 0 0 200 400;" xml:space="preserve">
<style type="text/css">
	.st0{fill:#FFFFFF;}
	.st1{fill:none;stroke:#FFFFFF;stroke-width:5;stroke-linecap:round;stroke-linejoin:round;}
</style>
<path class="st0" d="M8.9,353.7h182.2c3.4,0,6.1,2.7,6.1,6.1l0,0c0,3.4-2.7,6.1-6.1,6.1H8.9c-3.4,0-6.1-2.7-6.1-6.1l0,0
	C2.8,356.4,5.6,353.7,8.9,353.7z"/>
<path class="st0" d="M108.5,206.6h-34c-44,0-62-18-62-62v-51c0-44,18-62,62-62h51c44,0,62,18,62,62v34c0,1.4-1.1,2.5-2.5,2.5
	s-2.5-1.1-2.5-2.5v-34c0-41-16-57-57-57h-51c-41,0-57,16-57,57v51c0,41,16,57,57,57h34c1.4,0,2.5,1.1,2.5,2.5
	S109.9,206.6,108.5,206.6z"/>
<path class="st1" d="M60.3,140.3L80.5,114c2.9-3.7,8.2-4.4,12-1.5l15.6,12.2c3.7,2.9,9.1,2.2,12-1.4L139.7,98"/>
<path class="st0" d="M140.1,206.7c-2.4,0-4.1-0.8-5.1-1.6c-2-1.5-5.1-5.3-3-14.4l0.4-1.8c0.4-1.9-0.5-5-1.9-6.4l-3-3
	c-4.1-4.2-5.6-8.6-4.4-12.5c1.3-3.9,5.1-6.6,10.7-7.5l3.2-0.5c1.8-0.3,4.1-2,4.9-3.7l2.4-4.8c2.8-5.4,6.7-8.4,10.8-8.4
	c4.1,0,7.9,3,10.5,8.4l2.4,4.8c0.8,1.7,3.1,3.4,5,3.8l3.1,0.5c5.7,0.9,9.5,3.6,10.8,7.6c1.3,4-0.3,8.4-4.4,12.5l-3,3
	c-1.4,1.4-2.3,4.5-1.8,6.4l0.4,1.8c2,9.1-1.1,12.9-3.1,14.3c-2,1.5-6.6,3.2-14.4-1.5l-2.2-1.3c-1.8-1-5.1-1-7,0l-2.2,1.3
	C145.6,205.9,142.5,206.7,140.1,206.7z M155.2,147.1c-2.2,0-4.5,2-6.3,5.6l-2.4,4.8c-1.6,3.2-5.3,5.9-8.7,6.5l-3.2,0.5
	c-3.6,0.6-6.1,2.1-6.8,4.1c-0.7,2,0.5,4.8,3.2,7.5l3,3c2.6,2.7,4,7.5,3.2,11l-0.4,1.8c-1,4.5-0.6,8,1.1,9.2c1.7,1.2,5.1,0.6,9-1.8
	l2.2-1.3c3.4-2,8.7-2,12,0l2.2,1.3c3.9,2.3,7.2,3,8.9,1.8c1.7-1.2,2.1-4.7,1.1-9.2l-0.4-1.8c-0.8-3.6,0.6-8.4,3.2-11l3-3
	c2.7-2.7,3.8-5.4,3.1-7.4c-0.7-2-3.1-3.5-6.8-4.2l-3.2-0.5c-3.5-0.7-7.1-3.4-8.7-6.5l-2.4-4.8c0,0,0,0,0,0
	C159.6,149.2,157.4,147.1,155.2,147.1C155.2,147.1,155.2,147.1,155.2,147.1z"/>
<path class="st0" d="M8.9,310.1h182.2c3.4,0,6.1,2.7,6.1,6.1l0,0c0,3.4-2.7,6.1-6.1,6.1H8.9c-3.4,0-6.1-2.7-6.1-6.1l0,0
	C2.8,312.8,5.6,310.1,8.9,310.1z"/>
<path class="st0" d="M8.9,264.1h182.2c3.4,0,6.1,2.7,6.1,6.1l0,0c0,3.4-2.7,6.1-6.1,6.1H8.9c-3.4,0-6.1-2.7-6.1-6.1l0,0
	C2.8,266.8,5.6,264.1,8.9,264.1z"/>
</svg>
