<svg width="19" height="19" viewBox="0 0 19 19" fill="none" xmlns="http://www.w3.org/2000/svg">
<g id="icon" clip-path="url(#clip0_335_14037)">
<path id="Vector" d="M9.32293 11.8309C10.6102 11.8309 11.6537 10.7874 11.6537 9.50018C11.6537 8.21294 10.6102 7.16943 9.32293 7.16943C8.0357 7.16943 6.99219 8.21294 6.99219 9.50018C6.99219 10.7874 8.0357 11.8309 9.32293 11.8309Z" stroke="#474553" stroke-width="1.55383" stroke-linecap="round" stroke-linejoin="round"/>
<path id="Vector_2" d="M15.0726 11.8309C14.9691 12.0652 14.9383 12.3252 14.984 12.5772C15.0297 12.8292 15.1498 13.0618 15.3289 13.2449L15.3756 13.2915C15.52 13.4358 15.6346 13.6072 15.7128 13.7958C15.791 13.9844 15.8313 14.1866 15.8313 14.3908C15.8313 14.595 15.791 14.7972 15.7128 14.9859C15.6346 15.1745 15.52 15.3459 15.3756 15.4902C15.2313 15.6346 15.0599 15.7492 14.8712 15.8274C14.6826 15.9056 14.4804 15.9459 14.2762 15.9459C14.072 15.9459 13.8698 15.9056 13.6812 15.8274C13.4926 15.7492 13.3212 15.6346 13.1769 15.4902L13.1303 15.4435C12.9472 15.2644 12.7146 15.1443 12.4626 15.0986C12.2106 15.0529 11.9506 15.0837 11.7163 15.1872C11.4865 15.2857 11.2905 15.4492 11.1525 15.6576C11.0145 15.8661 10.9404 16.1103 10.9394 16.3603V16.4924C10.9394 16.9045 10.7757 17.2997 10.4843 17.5911C10.1929 17.8825 9.79765 18.0462 9.38555 18.0462C8.97345 18.0462 8.57823 17.8825 8.28683 17.5911C7.99543 17.2997 7.83172 16.9045 7.83172 16.4924V16.4225C7.82571 16.1653 7.74247 15.9159 7.59283 15.7067C7.44319 15.4975 7.23407 15.3381 6.99266 15.2493C6.75833 15.1459 6.49839 15.1151 6.24636 15.1607C5.99433 15.2064 5.76177 15.3266 5.57867 15.5057L5.53206 15.5523C5.38775 15.6968 5.21638 15.8114 5.02775 15.8896C4.83912 15.9678 4.63692 16.008 4.43272 16.008C4.22853 16.008 4.02633 15.9678 3.8377 15.8896C3.64907 15.8114 3.4777 15.6968 3.33339 15.5523C3.18892 15.408 3.07431 15.2366 2.99612 15.048C2.91792 14.8594 2.87767 14.6572 2.87767 14.453C2.87767 14.2488 2.91792 14.0466 2.99612 13.858C3.07431 13.6693 3.18892 13.498 3.33339 13.3536L3.38001 13.307C3.55911 13.1239 3.67926 12.8914 3.72496 12.6393C3.77066 12.3873 3.73981 12.1274 3.63639 11.8931C3.5379 11.6633 3.37438 11.4673 3.16594 11.3293C2.9575 11.1912 2.71325 11.1171 2.46325 11.1161H2.33117C1.91907 11.1161 1.52385 10.9524 1.23245 10.661C0.94105 10.3696 0.777344 9.97441 0.777344 9.56231C0.777344 9.15021 0.94105 8.75499 1.23245 8.46359C1.52385 8.17219 1.91907 8.00848 2.33117 8.00848H2.40109C2.65825 8.00247 2.90765 7.91923 3.11686 7.76959C3.32608 7.61995 3.48545 7.41083 3.57423 7.16941C3.67765 6.93508 3.7085 6.67515 3.66281 6.42312C3.61711 6.17109 3.49696 5.93853 3.31785 5.75543L3.27124 5.70882C3.12677 5.56451 3.01216 5.39314 2.93396 5.20451C2.85577 5.01587 2.81552 4.81368 2.81552 4.60948C2.81552 4.40529 2.85577 4.20309 2.93396 4.01446C3.01216 3.82583 3.12677 3.65446 3.27124 3.51015C3.41555 3.36568 3.58692 3.25107 3.77555 3.17288C3.96418 3.09468 4.16637 3.05443 4.37057 3.05443C4.57477 3.05443 4.77696 3.09468 4.96559 3.17288C5.15423 3.25107 5.3256 3.36568 5.4699 3.51015L5.51652 3.55676C5.69962 3.73587 5.93218 3.85602 6.18421 3.90172C6.43624 3.94741 6.69617 3.91656 6.9305 3.81315H6.99266C7.22244 3.71466 7.41842 3.55114 7.55646 3.3427C7.6945 3.13426 7.76857 2.89001 7.76957 2.64001V2.50793C7.76957 2.09583 7.93328 1.70061 8.22468 1.40921C8.51608 1.11781 8.9113 0.954102 9.3234 0.954102C9.7355 0.954102 10.1307 1.11781 10.4221 1.40921C10.7135 1.70061 10.8772 2.09583 10.8772 2.50793V2.57785C10.8782 2.82785 10.9523 3.07211 11.0903 3.28054C11.2284 3.48898 11.4244 3.65251 11.6541 3.75099C11.8885 3.85441 12.1484 3.88526 12.4004 3.83956C12.6525 3.79387 12.885 3.67372 13.0681 3.49461L13.1147 3.448C13.259 3.30353 13.4304 3.18892 13.619 3.11072C13.8077 3.03253 14.0099 2.99228 14.2141 2.99228C14.4183 2.99228 14.6205 3.03253 14.8091 3.11072C14.9977 3.18892 15.1691 3.30353 15.3134 3.448C15.4579 3.5923 15.5725 3.76367 15.6507 3.95231C15.7289 4.14094 15.7691 4.34313 15.7691 4.54733C15.7691 4.75153 15.7289 4.95372 15.6507 5.14235C15.5725 5.33098 15.4579 5.50235 15.3134 5.64666L15.2668 5.69328C15.0877 5.87638 14.9675 6.10894 14.9218 6.36097C14.8761 6.61299 14.907 6.87293 15.0104 7.10726V7.16941C15.1089 7.3992 15.2724 7.59518 15.4809 7.73321C15.6893 7.87125 15.9335 7.94533 16.1835 7.94633H16.3156C16.7277 7.94633 17.1229 8.11003 17.4143 8.40143C17.7057 8.69283 17.8695 9.08806 17.8695 9.50016C17.8695 9.91226 17.7057 10.3075 17.4143 10.5989C17.1229 10.8903 16.7277 11.054 16.3156 11.054H16.2457C15.9957 11.055 15.7514 11.1291 15.543 11.2671C15.3346 11.4051 15.171 11.6011 15.0726 11.8309V11.8309Z" stroke="#474553" stroke-width="1.55383" stroke-linecap="round" stroke-linejoin="round"/>
</g>
<defs>
<clipPath id="clip0_335_14037">
<rect width="18.6459" height="18.6459" fill="white" transform="translate(0 0.177246)"/>
</clipPath>
</defs>
</svg>
